<?xml version="1.0" standalone="no"?>
<!DOCTYPE svg PUBLIC "-//W3C//DTD SVG 20010904//EN"
 "http://www.w3.org/TR/2001/REC-SVG-20010904/DTD/svg10.dtd">
<svg version="1.0" xmlns="http://www.w3.org/2000/svg"
 width="1024.000000pt" height="1024.000000pt" viewBox="0 0 1024.000000 1024.000000"
 preserveAspectRatio="xMidYMid meet">

<g transform="translate(0.000000,1024.000000) scale(0.100000,-0.100000)"
fill="#000000" stroke="none">
<path d="M8410 8589 c-216 -20 -430 -77 -595 -160 -152 -76 -407 -266 -506
-376 -36 -40 -38 -40 -80 -32 -112 21 -270 3 -341 -41 -17 -10 -35 -17 -40
-14 -19 12 -153 -93 -245 -192 -54 -58 -99 -99 -101 -92 -1 8 -18 22 -38 33
-19 10 -40 30 -47 44 -15 30 -214 124 -387 181 -63 21 -123 42 -133 45 -13 5
-16 3 -12 -8 5 -11 0 -13 -21 -9 l-27 5 29 -38 29 -38 -37 7 c-22 4 -39 2 -43
-4 -3 -5 -1 -10 4 -10 6 0 11 -5 11 -11 0 -7 -10 -9 -26 -5 -16 4 -23 3 -20
-3 13 -21 -27 -51 -69 -51 -23 0 -50 -7 -61 -15 -10 -8 -29 -15 -42 -15 -18 0
-23 -5 -20 -22 3 -20 9 -23 48 -23 25 0 57 -7 70 -16 54 -35 -13 -66 -116 -53
-54 6 -66 0 -42 -24 9 -9 9 -15 0 -24 -10 -10 -15 -10 -22 2 -8 13 -10 13 -10
-1 0 -19 -20 -29 -54 -29 -13 0 -40 -11 -60 -25 -20 -14 -47 -25 -59 -25 -12
0 -29 -5 -37 -11 -13 -9 -12 -10 3 -5 11 4 16 2 12 -5 -4 -6 -19 -7 -36 -4
-17 4 -29 2 -29 -4 0 -18 -87 -23 -177 -11 -48 7 -104 14 -123 15 -19 0 -45 4
-56 8 -15 5 -23 3 -27 -8 -5 -11 -16 -14 -41 -10 -34 4 -35 3 -24 -18 6 -12
14 -29 18 -37 4 -8 19 -16 34 -18 14 -2 31 -12 36 -23 6 -10 17 -19 25 -19 8
0 15 -9 15 -20 0 -11 -4 -20 -10 -20 -5 0 -10 -9 -10 -19 0 -11 -4 -23 -10
-26 -20 -12 -9 -25 28 -31 27 -4 41 -13 50 -32 15 -32 10 -37 -26 -24 -16 5
-50 9 -75 8 -26 -1 -47 2 -47 7 0 5 17 29 37 54 l38 46 -35 -8 c-19 -4 -40
-11 -46 -16 -5 -4 -49 -8 -96 -7 -81 1 -89 -1 -138 -32 -54 -35 -62 -52 -11
-26 16 9 46 16 67 16 36 0 36 0 21 -24 -15 -22 -15 -25 1 -39 9 -8 33 -19 52
-24 l34 -9 -47 -13 c-26 -8 -50 -18 -53 -22 -7 -12 -24 -11 -24 0 0 9 28 22
58 27 8 1 17 6 20 10 4 3 -16 4 -45 2 -68 -6 -161 -52 -165 -81 -2 -15 -12
-23 -33 -27 -43 -9 -83 -38 -103 -74 -12 -24 -17 -27 -20 -13 -7 35 -30 17
-33 -27 -2 -25 0 -42 5 -39 5 4 6 1 2 -5 -4 -7 -14 -12 -22 -12 -9 0 -24 -10
-33 -22 -18 -21 -48 -17 -34 5 3 7 -3 4 -14 -5 -24 -22 -37 -22 -57 -3 -14 14
-17 13 -30 -12 -8 -15 -27 -40 -43 -55 -27 -26 -34 -28 -101 -25 -55 2 -72 -1
-74 -12 -2 -11 -18 -14 -61 -13 -53 0 -61 -3 -98 -36 -30 -27 -39 -44 -39 -68
0 -37 -24 -64 -34 -38 -9 23 -8 26 7 18 7 -4 9 -3 4 2 -5 5 -14 9 -20 9 -7 0
-13 15 -15 33 -2 17 -8 32 -13 32 -6 0 -8 4 -5 9 4 5 1 11 -5 13 -9 3 -9 9 -1
23 5 11 8 45 5 75 -3 30 -6 69 -6 85 -1 45 42 122 93 167 42 37 52 57 67 132
5 26 8 28 41 22 19 -3 42 -1 52 4 11 6 31 4 56 -5 50 -18 64 -18 64 -1 0 8 12
17 28 21 15 3 44 19 64 36 20 16 44 29 52 29 9 0 16 3 16 8 0 9 -66 9 -76 -1
-4 -4 -12 -7 -18 -7 -6 0 -3 7 7 14 10 8 22 27 26 43 6 21 17 31 48 41 47 15
72 49 28 38 -27 -7 -33 5 -12 22 15 13 55 5 78 -14 8 -8 30 -17 47 -20 36 -7
36 -7 23 -51 -10 -34 8 -73 34 -73 14 0 35 57 35 96 0 16 8 23 30 27 32 7 74
57 52 65 -14 4 -16 32 -2 32 6 0 10 11 10 23 0 13 3 27 7 31 5 4 8 13 8 19 0
17 115 18 122 1 2 -7 15 -15 29 -18 13 -4 24 -11 24 -16 0 -14 28 -12 33 3 2
6 8 9 12 5 13 -12 -17 -40 -37 -35 -10 3 -18 1 -18 -4 0 -18 49 -9 60 11 14
27 7 37 -33 45 -40 9 -88 36 -81 47 3 4 -11 8 -31 8 -58 0 -37 21 51 49 43 14
77 31 74 36 -3 6 -15 9 -27 7 -13 -1 -32 2 -44 8 -18 10 -20 9 -17 -11 2 -16
-3 -25 -14 -27 -10 -2 -18 2 -18 10 0 7 -11 18 -24 24 -22 10 -25 9 -31 -13
-3 -13 -17 -28 -33 -34 -31 -12 -45 -31 -30 -40 12 -8 1 -49 -14 -49 -5 0 -8
7 -5 15 8 20 -9 28 -33 15 -28 -15 -46 -2 -23 16 16 12 16 13 1 14 -9 0 -24
-7 -33 -16 -12 -13 -19 -14 -28 -5 -15 15 -28 14 -22 -2 8 -19 -33 -41 -50
-27 -15 13 -35 6 -35 -12 0 -5 7 -8 15 -4 35 13 14 -4 -75 -59 -9 -5 -36 -27
-61 -47 -26 -21 -49 -38 -53 -38 -11 0 4 63 20 81 8 8 14 25 14 37 0 12 5 22
11 22 8 0 8 5 -1 15 -17 21 -100 16 -100 -5 0 -9 41 -7 58 4 6 3 13 2 16 -3 4
-5 -4 -13 -16 -17 -12 -3 -81 -66 -153 -138 -72 -73 -149 -145 -171 -161 -21
-16 -52 -43 -68 -60 -90 -96 -105 -121 -113 -194 -5 -49 -38 -131 -52 -131 -5
0 -12 -18 -16 -39 -7 -41 -35 -79 -35 -47 0 9 -4 16 -10 16 -5 0 -10 -9 -10
-20 0 -14 -5 -18 -16 -13 -11 4 -22 -1 -30 -12 -22 -30 -16 -3 12 54 30 63 29
105 -2 54 -22 -37 -34 -42 -34 -14 0 28 11 52 21 45 5 -3 9 1 9 9 0 8 9 25 19
38 l20 24 -6 -22 c-4 -16 0 -25 12 -29 20 -8 38 15 25 31 -5 6 -7 20 -4 32 3
11 1 24 -5 27 -6 4 -11 0 -11 -9 0 -11 -5 -15 -14 -12 -9 4 -19 -9 -31 -36
-23 -56 -31 -30 -9 28 9 25 13 49 9 53 -4 4 -10 2 -12 -5 -2 -7 -27 -29 -55
-49 -46 -34 -57 -38 -124 -40 -71 -3 -74 -4 -118 -47 -25 -24 -46 -47 -46 -52
0 -4 -11 -23 -25 -41 -14 -18 -25 -36 -25 -39 0 -4 -9 -19 -21 -33 l-21 -27 8
30 c4 17 11 38 15 47 15 29 29 68 24 68 -3 0 -19 -30 -36 -67 -49 -108 -134
-275 -158 -313 l-23 -35 6 30 c6 28 5 29 -8 11 -16 -20 -100 -268 -111 -327
-6 -35 -5 -37 32 -51 47 -19 164 -43 308 -63 151 -22 608 -22 805 0 133 14
413 57 585 90 106 21 435 110 566 155 205 70 545 226 638 294 25 18 70 45 99
60 52 26 69 43 32 31 -11 -3 -20 -2 -20 4 0 5 9 12 19 16 28 9 101 63 101 76
0 6 -8 8 -17 5 -72 -21 -71 -14 5 30 97 58 252 166 252 177 0 10 -44 9 -76 -3
-39 -15 -39 -7 -1 21 77 55 137 114 137 133 0 16 3 18 9 8 7 -11 13 -9 30 9
l21 23 -26 17 -26 17 37 8 c20 5 36 14 36 19 1 6 5 15 10 21 7 8 -3 17 -31 28
-45 18 -53 36 -15 36 15 0 31 9 41 25 19 30 33 31 60 7 19 -19 20 -18 30 3 6
12 7 30 3 41 -20 51 -4 69 31 34 11 -11 20 -15 20 -10 0 16 14 12 39 -11 25
-23 41 -19 21 6 -7 8 -11 15 -9 16 2 0 15 2 29 5 14 2 35 9 47 15 l21 12 -24
24 c-30 30 -27 37 11 23 15 -6 37 -8 48 -4 12 4 17 2 13 -4 -3 -5 1 -12 9 -16
8 -3 15 -1 15 4 0 6 14 10 30 10 17 0 30 5 30 10 0 6 3 9 8 9 20 -3 32 2 26
12 -3 6 -1 15 6 19 9 6 4 13 -16 26 -42 26 -68 54 -58 64 5 4 42 15 83 25 96
23 211 16 305 -18 46 -17 79 -24 102 -20 19 3 34 1 34 -4 0 -14 -75 -89 -134
-132 l-54 -40 12 -40 c18 -63 26 -66 85 -32 29 17 62 42 75 55 25 28 30 26 75
-32 l33 -43 -33 -55 c-19 -31 -45 -62 -59 -69 -29 -15 -85 -75 -70 -75 5 0 44
11 86 25 42 14 92 25 111 25 34 0 34 -1 28 -32 -4 -18 -17 -46 -29 -63 -21
-28 -40 -75 -30 -75 15 0 164 114 164 126 0 18 24 18 40 -1 17 -21 39 -19 96
10 46 24 50 24 62 7 7 -9 23 -48 35 -87 32 -101 29 -279 -6 -382 -13 -40 -22
-73 -18 -73 17 1 191 142 260 211 121 122 159 220 147 384 -4 50 -13 115 -20
142 l-14 51 60 58 c145 143 353 436 433 609 65 140 117 311 128 423 l6 52 -47
-1 c-26 -1 -85 -5 -132 -10z m56 -27 c17 -11 11 -45 -16 -83 -35 -50 -119
-147 -165 -190 l-40 -37 -55 52 c-55 52 -127 88 -202 101 -35 5 -54 25 -25 25
9 0 9 2 -1 9 -11 6 -10 10 4 15 11 4 20 2 22 -3 2 -7 14 -4 30 7 59 40 112 60
217 80 160 31 212 37 231 24z m-374 -214 c132 -64 159 -282 47 -383 -51 -46
-76 -55 -153 -55 -44 0 -67 5 -76 15 -11 13 -4 15 51 15 101 1 176 45 220 132
52 102 -13 221 -144 262 -60 19 -147 16 -147 -5 0 -6 -5 -7 -10 -4 -6 4 -9 3
-8 -2 2 -5 -16 -26 -39 -46 -34 -31 -44 -49 -53 -92 -6 -30 -9 -67 -7 -82 4
-26 4 -26 6 5 2 44 16 40 34 -10 l15 -43 1 71 c1 96 10 133 35 149 42 28 218
32 201 5 -3 -6 -1 -10 4 -10 15 0 13 -30 -3 -60 -10 -17 -11 -30 -5 -42 7 -13
2 -32 -17 -70 -30 -59 -39 -69 -79 -90 -34 -18 -79 -8 -108 25 -26 30 -34 11
-9 -23 12 -16 22 -31 22 -34 0 -2 -16 0 -36 4 -60 14 -81 61 -86 188 -2 39 -6
72 -10 72 -17 0 -41 -70 -46 -132 -4 -58 -1 -75 22 -122 17 -34 43 -66 71 -88
24 -18 43 -36 42 -40 -7 -21 -119 -81 -169 -91 -31 -6 -55 -13 -53 -17 2 -3
-4 -6 -13 -7 -9 0 -49 -6 -89 -13 -58 -10 -78 -10 -103 0 -16 7 -30 17 -30 22
0 5 -4 7 -9 4 -7 -5 -101 79 -101 89 0 2 10 1 23 -2 20 -4 21 -3 4 10 -15 13
-15 16 -2 27 8 7 15 18 15 24 0 15 57 93 90 124 l25 24 -25 -16 c-41 -27 -46
-18 -10 19 19 20 40 33 47 31 7 -3 10 1 7 8 -5 13 52 76 69 76 4 0 10 -7 13
-15 4 -8 11 -12 17 -8 6 4 3 11 -8 19 -18 13 -18 14 0 34 18 20 41 28 30 10
-3 -5 -1 -10 5 -10 6 0 8 -5 4 -11 -4 -8 -9 -7 -15 2 -4 7 -11 10 -15 6 -4 -4
-1 -14 7 -23 14 -13 18 -13 40 4 41 32 159 93 159 82 0 -20 20 -9 26 14 7 30
28 50 80 76 51 26 190 25 246 -2z m-497 -98 c-3 -5 -12 -10 -18 -10 -7 0 -6 4
3 10 19 12 23 12 15 0z m-473 -238 c13 -5 15 -11 8 -22 -17 -27 -10 -33 10 -9
17 20 19 21 13 4 -4 -11 -23 -35 -42 -55 -19 -19 -31 -28 -26 -21 6 11 4 13
-11 7 -10 -4 -28 -9 -40 -10 -11 -2 -26 -6 -33 -11 -22 -13 -151 -12 -151 2 0
7 -7 10 -16 6 -11 -4 -15 -2 -12 7 4 12 89 60 168 94 37 15 103 19 132 8z
m-972 -246 c0 -2 -7 -6 -15 -10 -8 -3 -15 -1 -15 4 0 6 7 10 15 10 8 0 15 -2
15 -4z m50 -71 c-7 -8 -16 -15 -21 -15 -5 0 -6 7 -3 15 4 8 13 15 21 15 13 0
13 -3 3 -15z m-1780 -63 c0 -13 -12 -22 -22 -16 -10 6 -1 24 13 24 5 0 9 -4 9
-8z m2024 -48 c3 -8 2 -12 -4 -9 -6 3 -10 10 -10 16 0 14 7 11 14 -7z m-421
-55 c23 -22 50 -47 60 -54 22 -16 16 -45 -9 -45 -11 0 -15 6 -11 20 4 16 0 20
-17 20 -23 0 -90 76 -80 91 8 14 14 11 57 -32z m-48 -39 c3 -5 1 -10 -4 -10
-6 0 -11 5 -11 10 0 6 2 10 4 10 3 0 8 -4 11 -10z m6 -30 c21 -12 25 -50 7
-68 -15 -15 -58 -16 -58 -2 0 6 7 10 15 10 8 0 15 7 15 15 0 8 -6 15 -14 15
-18 0 -29 16 -21 30 8 13 31 13 56 0z m297 -22 c15 -15 16 -41 0 -36 -13 5
-31 48 -20 48 5 0 13 -5 20 -12z m-123 -10 c14 -6 25 -15 25 -20 0 -4 0 -11 0
-15 0 -5 -8 -8 -19 -9 -10 -1 -29 -9 -42 -18 -29 -20 -39 -20 -39 -2 0 8 -7
17 -16 20 -18 7 -9 26 12 26 9 0 22 7 30 15 18 18 17 18 49 3z m-2255 -127 c0
-11 -39 -25 -47 -18 -3 3 -2 10 2 16 8 13 45 15 45 2z m900 -101 c0 -5 -4 -10
-10 -10 -5 0 -10 5 -10 10 0 6 5 10 10 10 6 0 10 -4 10 -10z m-1207 -69 c3
-13 1 -18 -9 -14 -7 2 -10 11 -7 19 7 19 10 18 16 -5z m617 -291 c0 -15 -26
-23 -41 -14 -9 5 -7 10 7 15 27 11 34 10 34 -1z m-770 -101 c0 -37 -4 -58 -10
-54 -11 7 -13 57 -4 93 10 36 14 26 14 -39z m180 -128 c13 -26 13 -31 -4 -31
-13 0 -26 20 -26 41 0 16 19 10 30 -10z"/>
<path d="M7791 8272 c-30 -42 -26 -50 5 -12 15 17 24 33 21 36 -2 3 -14 -8
-26 -24z"/>
<path d="M5523 8056 c32 -9 60 -28 86 -55 21 -23 47 -41 57 -42 11 0 35 -1 55
-2 26 -1 35 2 32 11 -3 6 -11 12 -19 12 -17 0 -18 17 -1 23 6 2 9 8 5 12 -11
11 -140 43 -204 49 l-59 6 48 -14z"/>
<path d="M4975 8020 c-13 -6 9 -9 65 -9 56 0 78 3 65 9 -11 5 -40 9 -65 9 -25
0 -54 -4 -65 -9z"/>
<path d="M4848 7973 c7 -3 16 -2 19 1 4 3 -2 6 -13 5 -11 0 -14 -3 -6 -6z"/>
<path d="M5798 7963 c7 -3 16 -2 19 1 4 3 -2 6 -13 5 -11 0 -14 -3 -6 -6z"/>
<path d="M4438 7806 c-18 -13 -37 -76 -23 -76 4 0 20 11 37 25 26 22 27 25 10
25 -11 0 -23 -6 -25 -12 -4 -9 -6 -9 -6 1 -1 8 6 23 16 33 19 21 15 23 -9 4z"/>
<path d="M4310 7776 c0 -8 6 -16 13 -19 9 -3 9 -7 -2 -20 -7 -10 -10 -17 -6
-17 15 0 32 33 27 52 -5 21 -32 25 -32 4z"/>
<path d="M5551 7757 c2 -1 13 -9 24 -17 19 -14 19 -14 6 3 -7 9 -18 17 -24 17
-6 0 -8 -1 -6 -3z"/>
<path d="M5520 7710 c0 -5 5 -10 11 -10 5 0 7 5 4 10 -3 6 -8 10 -11 10 -2 0
-4 -4 -4 -10z"/>
<path d="M4720 7630 c14 -11 29 -20 34 -20 5 0 -3 9 -17 20 -14 11 -29 20 -34
20 -4 0 3 -9 17 -20z"/>
<path d="M4740 7586 c0 -2 7 -6 15 -10 8 -3 15 -1 15 4 0 6 -7 10 -15 10 -8 0
-15 -2 -15 -4z"/>
<path d="M4115 7265 c-16 -7 -38 -16 -47 -19 -10 -3 -18 -13 -18 -21 0 -10 7
-15 18 -13 24 4 45 -11 34 -25 -14 -19 -33 -97 -27 -107 13 -21 37 -8 52 27 8
21 24 45 34 54 10 9 19 21 19 28 0 15 30 14 31 -1 1 -7 1 -20 0 -30 -1 -9 3
-19 9 -23 18 -11 11 -22 -21 -29 -17 -3 -28 -10 -24 -16 10 -17 58 -11 100 11
22 12 53 24 70 28 17 4 31 14 33 24 3 14 0 16 -22 7 -32 -12 -56 -3 -56 21 0
22 -28 39 -65 39 -20 0 -26 4 -21 15 3 10 -5 20 -24 30 -34 18 -36 18 -75 0z
m175 -119 c0 -14 -37 -33 -46 -23 -2 2 -2 12 2 21 8 20 44 21 44 2z"/>
<path d="M3985 7190 c-3 -5 -1 -10 4 -10 6 0 11 5 11 10 0 6 -2 10 -4 10 -3 0
-8 -4 -11 -10z"/>
<path d="M3870 7170 c0 -5 5 -10 11 -10 5 0 7 5 4 10 -3 6 -8 10 -11 10 -2 0
-4 -4 -4 -10z"/>
<path d="M3797 7163 c-4 -3 -7 -11 -7 -17 0 -6 5 -5 12 2 6 6 9 14 7 17 -3 3
-9 2 -12 -2z"/>
<path d="M4001 7074 c0 -11 3 -14 6 -6 3 7 2 16 -1 19 -3 4 -6 -2 -5 -13z"/>
<path d="M4200 7060 c-8 -5 -11 -12 -8 -15 4 -4 17 0 30 9 24 17 5 23 -22 6z"/>
<path d="M3080 7028 c-23 -24 -44 -58 -36 -58 2 0 19 18 36 40 34 43 34 54 0
18z"/>
<path d="M3092 6998 c-14 -14 -16 -28 -3 -28 9 0 24 30 18 36 -2 2 -9 -2 -15
-8z"/>
<path d="M3444 6942 c-17 -11 -23 -82 -7 -82 14 0 26 38 21 69 -2 12 -7 18
-14 13z"/>
<path d="M7047 6823 c-5 -12 -21 -28 -37 -35 -26 -11 -29 -17 -25 -43 6 -29 2
-32 -72 -73 -43 -24 -99 -56 -125 -72 -57 -35 -72 -24 -20 15 40 30 95 95 87
103 -3 3 -16 -4 -28 -16 -13 -12 -26 -20 -29 -16 -3 3 -22 -11 -41 -31 -31
-32 -119 -95 -133 -95 -3 0 -28 -15 -57 -33 -69 -44 -89 -54 -52 -25 60 46
125 111 125 126 0 12 -4 12 -25 -2 -14 -9 -25 -12 -25 -7 0 6 7 14 16 19 15 8
15 12 0 41 -9 17 -14 36 -11 41 3 6 2 10 -2 10 -12 0 -49 -29 -94 -73 -22 -21
-81 -58 -132 -82 -50 -25 -101 -51 -112 -57 -11 -7 -27 -18 -36 -23 -13 -8 -4
-10 36 -10 35 1 58 7 69 18 10 9 25 17 34 17 15 -1 14 -3 -3 -15 -11 -8 -25
-19 -32 -25 -7 -5 -15 -10 -19 -10 -8 0 -70 -27 -109 -47 -16 -8 -57 -23 -90
-33 -33 -10 -90 -29 -126 -43 -76 -29 -143 -44 -119 -28 12 9 11 11 -7 11 -16
0 -21 -4 -17 -15 4 -9 0 -15 -8 -15 -7 0 -32 -9 -53 -20 -22 -12 -76 -31 -120
-44 -44 -13 -204 -62 -355 -109 -151 -46 -313 -95 -360 -107 -98 -26 -110 -34
-110 -66 0 -18 9 -28 36 -39 20 -8 41 -12 46 -9 5 3 16 -3 24 -15 8 -12 21
-21 29 -21 15 0 77 -31 86 -43 3 -4 38 -1 78 8 101 21 284 30 354 16 32 -6 79
-21 105 -34 l48 -24 93 59 c111 71 186 101 340 134 120 27 306 37 383 21 35
-7 37 -6 47 25 5 18 17 71 26 118 8 46 21 88 28 92 6 4 28 12 47 16 158 38
394 96 435 107 28 8 61 16 75 19 49 11 55 20 41 65 -13 45 -1 116 22 124 8 3
3 14 -14 33 -15 16 -24 35 -21 43 2 8 0 11 -6 7 -11 -7 -23 17 -18 37 1 6 1 9
-1 5 -6 -11 -33 -10 -33 0 0 4 6 14 13 22 9 11 7 11 -8 -1 -27 -20 -95 -50
-94 -41 0 4 9 21 19 37 41 64 51 87 48 108 l-4 22 -7 -22z m49 -180 c8 -21 19
-46 24 -55 8 -13 7 -18 -3 -18 -15 0 -69 95 -59 104 13 13 24 4 38 -31z m-561
-13 c-3 -5 -11 -10 -16 -10 -6 0 -7 5 -4 10 3 6 11 10 16 10 6 0 7 -4 4 -10z
m31 -36 c-8 -8 -23 -14 -33 -14 -11 0 -25 -6 -32 -12 -11 -11 -13 -10 -9 2 5
17 67 52 80 44 4 -3 2 -12 -6 -20z m-481 -272 c-14 -12 -65 -32 -65 -26 0 3
15 11 33 19 37 17 45 18 32 7z"/>
<path d="M3946 6804 c-5 -12 -2 -15 10 -10 8 3 22 6 30 6 9 0 12 5 9 10 -10
16 -42 12 -49 -6z"/>
<path d="M4040 6800 c0 -13 11 -13 30 0 12 8 11 10 -7 10 -13 0 -23 -4 -23
-10z"/>
<path d="M3650 6750 c0 -5 5 -10 10 -10 6 0 10 5 10 10 0 6 -4 10 -10 10 -5 0
-10 -4 -10 -10z"/>
<path d="M7116 6752 c-3 -5 6 -30 19 -57 13 -27 21 -53 19 -57 -3 -5 0 -8 6
-8 6 0 18 -7 26 -15 19 -18 90 -131 105 -165 6 -14 26 -56 44 -95 18 -38 36
-86 39 -105 11 -59 28 -89 55 -92 15 -2 32 -14 40 -30 14 -24 14 -28 -2 -46
-13 -14 -17 -34 -15 -73 1 -30 -2 -63 -5 -75 -9 -27 19 -56 29 -30 9 23 24 20
24 -5 0 -13 4 -18 11 -13 9 5 10 -10 4 -57 -5 -35 -9 -76 -10 -91 -4 -53 -5
-54 -15 -38 -8 13 -10 12 -10 -2 0 -10 5 -18 12 -18 6 0 8 -3 4 -7 -4 -4 -16
3 -26 17 l-20 25 0 -27 c0 -16 -4 -28 -10 -28 -5 0 -10 8 -10 18 0 9 -5 24
-11 32 -8 11 -9 2 -6 -36 3 -42 0 -53 -15 -63 -11 -7 -18 -7 -18 -1 0 5 5 10
10 10 6 0 9 16 6 38 -3 20 -5 55 -6 77 -1 35 -5 28 -31 -59 -16 -55 -34 -105
-41 -112 -7 -6 -29 -14 -48 -17 -34 -6 -23 2 23 17 12 4 17 16 17 42 0 58 47
257 94 396 24 70 41 130 38 133 -8 7 -115 5 -195 -4 -37 -4 -69 -6 -71 -4 -1
2 5 40 15 86 10 45 22 102 25 126 6 39 5 43 -12 37 -10 -3 -129 -33 -264 -67
-367 -92 -365 -92 -368 -95 -2 -1 -16 -51 -31 -111 l-27 -108 -145 -1 c-283
-3 -506 -67 -677 -196 l-54 -40 -21 20 c-12 10 -44 28 -72 38 -70 27 -277 27
-390 0 -103 -24 -274 -80 -338 -111 -28 -13 -53 -22 -55 -20 -5 4 13 104 48
265 26 122 26 163 3 156 -10 -3 -61 -12 -113 -21 -52 -9 -179 -34 -281 -56
-102 -21 -193 -39 -202 -39 -16 0 -31 -36 -43 -105 -10 -58 -13 -60 -48 -27
-43 42 -82 59 -181 82 -107 25 -204 25 -370 1 -195 -29 -401 -84 -675 -179
-76 -26 -113 -35 -106 -24 6 10 -72 22 -146 22 l-48 0 0 -46 c0 -40 2 -45 18
-39 43 18 147 54 149 51 2 -1 -24 -15 -58 -29 l-60 -26 63 -73 c91 -104 115
-139 122 -174 7 -31 -6 -113 -59 -379 -13 -66 -26 -131 -28 -145 -5 -24 -87
-419 -144 -687 -15 -72 -25 -134 -22 -137 3 -3 86 15 185 39 203 52 665 147
672 140 3 -3 1 -5 -4 -5 -5 0 -10 -21 -11 -48 -2 -45 -32 -212 -108 -588 -41
-198 -42 -218 -17 -210 156 47 514 131 602 142 30 3 87 16 125 29 67 22 227
42 209 26 -5 -4 -45 -15 -89 -24 -149 -31 -248 -62 -233 -74 22 -18 271 -140
363 -178 124 -51 298 -99 480 -131 142 -25 185 -28 385 -28 231 -1 323 8 550
54 230 47 531 161 729 277 219 128 383 253 534 408 93 94 195 221 185 230 -2
3 -31 -8 -64 -24 -89 -42 -151 -59 -239 -66 -110 -9 -243 -31 -422 -71 -84
-19 -169 -34 -190 -33 l-38 1 40 9 c22 5 69 18 105 28 114 35 281 63 415 71
142 9 217 26 310 72 171 85 256 204 256 357 0 36 -4 79 -10 94 -9 23 -4 47 29
148 22 66 52 143 66 171 14 28 22 54 17 58 -4 4 -57 12 -116 18 -60 5 -111 12
-113 15 -3 2 4 20 15 38 20 35 26 59 56 229 34 190 88 359 71 220 -7 -54 -68
-336 -85 -395 -24 -80 -30 -72 56 -80 64 -6 153 -29 153 -40 0 -1 -13 -31 -29
-66 -43 -97 -111 -301 -104 -313 22 -35 21 -131 -2 -231 -6 -27 -4 -26 28 18
36 50 86 146 160 313 92 205 178 579 177 767 l-1 52 -19 -54 c-22 -61 -30 -73
-30 -44 0 11 3 23 8 27 6 7 17 58 42 207 6 36 6 69 0 90 -6 19 -9 50 -9 69 l1
35 8 -30 c13 -52 10 5 -5 85 l-14 75 4 -60 c4 -49 3 -57 -8 -44 -6 9 -17 14
-22 12 -7 -2 -10 23 -9 69 2 40 -1 91 -6 113 -5 22 -17 78 -28 125 -10 47 -26
100 -36 118 -9 17 -13 32 -8 32 5 0 14 -12 21 -26 6 -15 14 -24 17 -21 6 5
-22 68 -51 117 -14 22 -33 65 -90 198 -10 23 -22 42 -27 42 -13 0 -9 -16 7
-30 10 -9 12 -17 6 -23 -13 -13 -3 -100 16 -155 9 -23 13 -46 9 -49 -7 -8 -27
17 -21 27 1 3 -4 11 -12 19 -12 11 -14 10 -11 -5 2 -11 7 -22 13 -26 5 -4 7
-10 3 -13 -13 -13 -49 17 -69 58 -12 23 -36 60 -53 82 -18 22 -36 48 -39 59
-4 10 -32 56 -62 102 -51 77 -75 98 -89 76z m299 -482 l20 -25 -22 19 c-13 11
-23 24 -23 29 0 6 1 8 3 6 1 -2 11 -15 22 -29z m15 -67 c0 -22 -20 -14 -30 13
-14 36 -13 39 10 19 11 -10 20 -24 20 -32z m-369 22 c3 -2 -5 -55 -17 -117
-12 -62 -21 -115 -19 -119 3 -3 53 2 112 12 59 10 108 17 109 16 1 -1 -8 -38
-21 -82 -12 -44 -28 -99 -34 -121 l-11 -42 -83 -12 c-114 -16 -127 -20 -127
-39 0 -9 -14 -87 -31 -174 -35 -176 -33 -187 30 -187 20 0 65 14 100 30 35 17
65 29 67 27 2 -2 -8 -62 -23 -134 l-27 -131 -65 -26 c-114 -44 -191 -61 -286
-61 -115 0 -160 20 -193 85 -30 58 -26 131 22 370 19 96 34 175 33 176 -1 1
-27 -2 -56 -7 -30 -4 -56 -7 -58 -5 -2 2 7 48 19 101 l24 98 54 19 c30 10 60
25 67 34 6 8 19 56 29 106 15 72 23 92 39 98 11 5 83 23 160 40 77 18 147 36
155 41 17 10 25 11 31 4z m423 -60 c3 -8 1 -15 -4 -15 -6 0 -10 7 -10 15 0 8
2 15 4 15 2 0 6 -7 10 -15z m-2870 -595 c-119 -629 -146 -773 -151 -813 -7
-44 10 -38 -212 -72 -196 -30 -184 -29 -177 -7 3 9 26 123 51 252 51 265 173
876 186 931 9 35 10 36 91 54 46 10 126 28 178 40 52 12 98 19 102 16 4 -3
-27 -184 -68 -401z m1842 297 c4 -3 -12 -57 -34 -119 -37 -104 -42 -113 -64
-110 -12 2 -68 4 -123 5 -123 2 -180 -15 -180 -53 0 -23 9 -28 121 -65 180
-60 224 -102 224 -213 0 -46 -7 -73 -31 -120 -74 -149 -264 -246 -534 -273
-96 -9 -251 -3 -259 10 -2 3 16 57 40 119 24 62 44 117 44 123 0 6 7 8 16 5
52 -20 114 -28 187 -24 103 5 160 30 165 70 4 33 -9 40 -111 63 -165 37 -234
107 -225 230 14 172 172 302 426 350 76 14 325 16 338 2z m-2574 -31 c129 -23
209 -88 228 -185 25 -132 -57 -277 -203 -361 l-50 -28 40 -11 c64 -17 106 -51
136 -110 30 -61 33 -102 13 -176 -51 -191 -240 -339 -521 -409 -131 -32 -671
-113 -682 -102 -4 4 13 96 86 456 21 107 55 283 76 390 20 107 38 203 40 213
2 9 -1 17 -5 17 -9 0 -113 106 -118 120 -3 8 138 56 303 104 112 32 252 61
370 75 184 23 194 23 287 7z m3760 -26 c3 -16 1 -30 -4 -30 -4 0 -8 6 -8 14 0
8 -3 21 -6 30 -3 9 -2 16 4 16 5 0 12 -13 14 -30z m5 -72 c-3 -8 -6 -5 -6 6
-1 11 2 17 5 13 3 -3 4 -12 1 -19z m-2151 -32 c33 -15 59 -36 73 -59 38 -61
37 -112 -7 -342 -22 -115 -46 -256 -53 -312 -11 -98 -13 -102 -38 -107 -26 -6
-254 -45 -281 -49 -11 -1 -16 10 -18 45 l-3 46 -45 -43 c-85 -83 -221 -132
-339 -123 -78 7 -117 27 -155 84 -28 40 -32 53 -32 112 0 45 8 87 23 127 55
148 278 284 520 317 72 10 89 16 89 29 0 77 -176 61 -364 -32 -43 -22 -80 -38
-81 -37 -2 2 4 53 13 113 l16 110 80 37 c93 42 225 86 294 98 26 4 94 8 152 9
91 1 112 -2 156 -23z m1684 -868 c0 -2 -11 -32 -24 -68 -16 -45 -28 -63 -37
-60 -8 3 -44 5 -81 5 -49 -1 -72 -5 -84 -17 -25 -25 -12 -42 50 -61 67 -21
122 -66 131 -107 9 -41 -11 -105 -45 -143 -32 -37 -115 -81 -181 -96 -55 -13
-216 -14 -223 -2 -3 5 4 37 16 70 22 61 23 62 53 54 48 -13 145 -6 172 12 40
27 25 48 -51 72 -80 26 -113 53 -122 101 -18 94 76 201 203 231 33 8 223 15
223 9z m-494 -145 c-4 -32 -16 -107 -27 -167 -11 -59 -21 -144 -23 -187 -2
-44 -5 -81 -7 -83 -9 -7 -151 -26 -160 -21 -5 4 -9 16 -9 28 0 19 -2 19 -32
-10 -87 -82 -222 -93 -272 -22 -20 29 -22 129 -2 167 39 74 152 135 294 157
33 5 42 11 42 26 0 11 -7 22 -16 26 -24 9 -118 -15 -181 -47 -32 -16 -59 -27
-61 -26 -2 2 0 30 5 61 8 57 9 58 63 89 80 45 168 65 289 65 l103 1 -6 -57z
m-605 -62 c26 -26 29 -36 28 -88 0 -32 -4 -78 -8 -103 -5 -25 -16 -90 -25
-145 -25 -146 -20 -140 -116 -154 -45 -7 -84 -10 -86 -8 -3 2 9 78 26 167 17
90 28 172 24 182 -9 28 -56 23 -87 -10 -22 -23 -30 -47 -43 -118 -24 -141 -45
-238 -52 -246 -8 -7 -165 -38 -170 -33 -2 1 11 79 29 173 17 94 29 178 26 186
-11 27 -51 18 -87 -19 -30 -31 -37 -47 -47 -113 -16 -107 -42 -244 -46 -249
-7 -6 -168 -35 -173 -30 -2 2 10 78 28 168 19 99 32 198 32 249 l1 84 65 13
c36 7 75 15 88 18 19 5 22 1 22 -26 l0 -32 21 27 c24 30 98 70 148 80 42 8
107 -9 120 -31 8 -15 10 -15 26 0 58 58 115 84 188 86 30 1 45 -6 68 -28z
m-1395 -21 c28 0 32 -27 13 -90 -22 -73 -136 -107 -178 -54 -29 36 -26 57 11
100 38 43 63 55 102 49 16 -3 39 -5 52 -5z m-252 -57 c-25 -109 -104 -584
-104 -625 0 -29 -4 -58 -8 -64 -4 -6 -32 -17 -62 -23 -109 -24 -100 -25 -100
12 l0 34 -43 -42 c-70 -67 -196 -86 -249 -39 -66 59 -62 202 8 328 55 98 185
185 290 194 l50 4 12 69 c7 38 12 82 12 98 0 28 3 29 83 49 107 26 116 26 111
5z m745 -87 c41 -22 59 -51 71 -116 8 -42 7 -67 -5 -113 -32 -124 -100 -209
-214 -264 -49 -25 -67 -28 -153 -28 -93 0 -98 1 -127 30 -92 87 -54 299 75
413 48 43 130 83 194 96 43 8 126 -2 159 -18z m-1339 -39 c0 -6 -4 -27 -10
-46 -5 -18 -25 -124 -45 -235 -39 -220 -75 -399 -79 -404 -8 -7 -177 -34 -182
-29 -3 3 1 38 10 79 90 427 100 510 71 581 -6 13 -2 17 16 17 13 0 65 11 114
24 110 29 105 29 105 13z m836 -44 c-9 -44 -76 -442 -76 -450 -1 -23 -24 -34
-99 -48 -46 -9 -85 -14 -87 -12 -2 2 12 89 31 193 20 104 35 203 34 219 -4 96
-7 91 79 108 119 23 125 22 118 -10z m1444 -442 c0 -4 -26 -11 -57 -14 -55 -6
-269 -56 -305 -72 -13 -5 -18 -3 -18 8 0 15 21 21 245 71 71 16 135 20 135 7z
m-400 -59 c0 -4 -125 -32 -277 -61 -153 -30 -298 -60 -323 -67 -25 -7 -90 -26
-145 -42 -110 -32 -208 -46 -202 -28 2 6 44 16 93 23 49 6 133 28 188 47 54
20 101 34 105 32 4 -3 57 6 117 20 111 26 395 81 427 83 9 0 17 -2 17 -7z
m-985 -202 c15 -6 7 -9 -30 -9 -47 -1 -164 -20 -245 -40 -55 -14 -180 -22
-151 -11 30 13 233 50 326 60 39 4 72 8 75 8 3 0 14 -3 25 -8z"/>
<path d="M6928 5283 c7 -3 16 -2 19 1 4 3 -2 6 -13 5 -11 0 -14 -3 -6 -6z"/>
<path d="M6885 5270 c-3 -5 -27 -19 -53 -31 -36 -16 -59 -19 -98 -15 -35 4
-61 1 -79 -8 -30 -16 -75 -12 -87 7 -15 24 -7 -18 10 -53 27 -55 70 -72 177
-67 67 2 116 12 192 36 108 35 107 35 118 106 l6 40 -15 -30 c-8 -16 -15 -25
-15 -19 -1 11 -53 26 -98 28 -12 1 -25 4 -29 9 -10 10 -22 9 -29 -3z"/>
<path d="M4181 5000 c-6 -55 -44 -242 -56 -272 -8 -21 16 -23 92 -9 26 5 85
15 131 22 l82 11 0 32 c0 17 7 71 16 119 8 49 13 94 10 100 -2 7 -5 -1 -6 -18
-2 -30 -2 -30 -10 -5 -8 24 -8 24 -9 3 -1 -27 -18 -31 -24 -5 -4 16 -5 16 -6
0 -1 -15 -11 -18 -57 -18 -30 0 -64 4 -74 10 -27 14 -49 3 -43 -23 3 -15 -1
-13 -11 8 l-14 30 -3 -30 c-2 -22 -4 -17 -9 20 -4 28 -8 39 -9 25z m226 -62
c-3 -8 -6 -5 -6 6 -1 11 2 17 5 13 3 -3 4 -12 1 -19z m24 -19 l-10 -24 0 26
c-1 14 2 29 6 33 12 12 14 -9 4 -35z"/>
<path d="M6030 5160 c-14 -10 -45 -24 -70 -30 -25 -6 -53 -16 -62 -21 -10 -5
-46 -6 -80 -2 -76 7 -74 -3 3 -16 l54 -9 -60 -2 c-45 -1 -55 -4 -40 -10 14 -7
1 -9 -45 -8 l-64 2 -23 -49 c-16 -37 -19 -51 -10 -57 32 -20 268 -3 379 28 29
8 61 16 70 19 36 8 157 77 179 102 l24 25 -39 -26 c-21 -14 -44 -26 -50 -25
-7 0 -6 3 2 6 6 2 12 12 12 20 0 14 -2 14 -22 0 -13 -8 -22 -20 -21 -26 2 -6
-13 1 -33 14 -20 14 -40 22 -45 19 -5 -3 -9 -1 -9 5 0 6 -8 8 -17 5 -15 -5
-15 -4 -3 5 8 5 11 13 7 17 -4 4 -13 2 -19 -4 -7 -7 -16 -12 -21 -12 -5 0 1 9
14 19 31 25 21 35 -11 11z"/>
<path d="M6285 5150 c-3 -5 -1 -10 4 -10 6 0 11 5 11 10 0 6 -2 10 -4 10 -3 0
-8 -4 -11 -10z"/>
<path d="M3501 5554 c-30 -8 -57 -17 -60 -20 -8 -8 -50 -218 -45 -225 5 -9
158 25 205 45 85 35 136 116 110 173 -20 44 -105 55 -210 27z"/>
<path d="M3413 5068 c-44 -7 -64 -15 -67 -26 -13 -44 -47 -245 -42 -250 8 -8
133 15 198 36 102 34 158 96 158 174 0 54 -28 72 -113 75 -40 1 -100 -3 -134
-9z"/>
<path d="M3980 4924 c-8 -18 -19 -30 -26 -27 -6 2 -15 -4 -18 -14 -7 -17 -8
-17 -21 1 -10 13 -23 17 -44 14 -17 -3 -31 0 -31 5 0 5 -20 7 -45 5 -32 -2
-45 1 -45 10 0 9 -8 7 -28 -7 -22 -15 -32 -17 -40 -9 -9 9 -12 8 -12 -3 -1
-23 -85 -82 -151 -106 -34 -13 -100 -28 -147 -33 -47 -6 -90 -12 -96 -13 -15
-3 -19 54 -7 98 7 28 7 35 -5 35 -8 0 -14 -10 -15 -22 0 -22 -1 -22 -9 -3 -7
17 -9 16 -10 -10 -1 -16 -4 -22 -7 -13 -3 12 -12 15 -36 12 -18 -2 -77 -5
-131 -7 l-100 -4 -37 -169 c-20 -93 -36 -170 -34 -172 3 -3 367 48 490 69 148
25 262 61 395 127 83 40 193 143 205 190 4 15 11 30 17 33 5 4 8 15 6 25 -3
15 -6 13 -18 -12z m-240 -34 c0 -5 -5 -10 -11 -10 -5 0 -7 5 -4 10 3 6 8 10
11 10 2 0 4 -4 4 -10z m220 -13 c0 -2 -9 -14 -20 -27 -11 -13 -20 -19 -20 -15
0 5 7 17 17 27 15 17 23 22 23 15z"/>
<path d="M3695 4930 c-3 -5 -1 -10 4 -10 6 0 11 5 11 10 0 6 -2 10 -4 10 -3 0
-8 -4 -11 -10z"/>
<path d="M3951 4924 c0 -11 3 -14 6 -6 3 7 2 16 -1 19 -3 4 -6 -2 -5 -13z"/>
<path d="M3922 4910 c0 -14 2 -19 5 -12 2 6 2 18 0 25 -3 6 -5 1 -5 -13z"/>
<path d="M5100 5203 c-84 -34 -126 -67 -140 -109 -22 -67 15 -98 90 -75 75 22
117 76 134 174 8 45 4 46 -84 10z"/>
<path d="M5466 5049 c-6 -39 -8 -40 -20 -23 -13 17 -18 17 -48 6 -19 -6 -48
-12 -64 -12 -16 -1 -54 -7 -84 -14 l-54 -12 3 -55 c1 -30 4 -55 6 -57 3 -3
102 11 201 29 l61 11 6 81 c6 91 3 110 -7 46z"/>
<path d="M5161 4994 c0 -11 3 -14 6 -6 3 7 2 16 -1 19 -3 4 -6 -2 -5 -13z"/>
<path d="M4920 4984 c0 -14 -3 -14 -15 -4 -12 10 -15 9 -15 -6 0 -12 -3 -15
-8 -8 -11 17 -41 13 -48 -8 -3 -10 -11 -19 -17 -20 -7 0 -23 -2 -37 -3 -14 -2
-33 -6 -42 -10 -12 -5 -18 -3 -18 5 0 9 -3 10 -14 1 -7 -6 -21 -9 -30 -5 -10
4 -16 1 -17 -7 0 -8 -2 -22 -4 -33 -4 -23 37 -66 64 -66 11 0 23 -4 26 -10 9
-15 133 -12 186 4 67 21 127 53 182 99 46 38 50 55 16 60 -8 2 -18 5 -24 9 -5
3 -33 1 -61 -5 -42 -8 -56 -7 -84 6 -41 21 -40 21 -40 1z m220 -34 c-8 -5 -19
-10 -25 -10 -5 0 -3 5 5 10 8 5 20 10 25 10 6 0 3 -5 -5 -10z"/>
<path d="M6390 4449 c-55 -22 -88 -75 -70 -110 31 -58 140 16 140 96 0 28 -23
32 -70 14z"/>
<path d="M4133 4193 c-28 -5 -78 -54 -100 -96 -8 -17 -18 -59 -21 -94 -5 -60
-4 -63 23 -75 22 -10 32 -9 53 3 53 29 77 86 97 222 8 51 7 51 -52 40z"/>
<path d="M4959 4331 c-58 -46 -101 -208 -65 -244 29 -28 74 -21 110 17 53 55
86 202 54 234 -18 18 -72 14 -99 -7z"/>
<path d="M7350 6690 c0 -5 5 -10 11 -10 5 0 7 5 4 10 -3 6 -8 10 -11 10 -2 0
-4 -4 -4 -10z"/>
<path d="M7416 6665 c-3 -9 0 -15 9 -15 8 0 15 7 15 15 0 8 -4 15 -9 15 -5 0
-11 -7 -15 -15z"/>
<path d="M7341 6637 c2 -1 12 -9 22 -16 15 -12 17 -12 11 3 -3 9 -13 16 -22
16 -8 0 -13 -1 -11 -3z"/>
<path d="M7385 6560 c3 -5 8 -10 11 -10 2 0 4 5 4 10 0 6 -5 10 -11 10 -5 0
-7 -4 -4 -10z"/>
<path d="M7397 6483 c-10 -10 -8 -33 2 -33 6 0 9 9 8 20 -1 23 -1 22 -10 13z"/>
<path d="M7632 6080 c0 -14 2 -19 5 -12 2 6 2 18 0 25 -3 6 -5 1 -5 -13z"/>
<path d="M7411 5894 c0 -11 3 -14 6 -6 3 7 2 16 -1 19 -3 4 -6 -2 -5 -13z"/>
<path d="M7467 5863 c-10 -10 -8 -63 2 -63 5 0 9 16 8 35 -1 38 -1 38 -10 28z"/>
<path d="M7440 5767 c0 -19 16 -31 24 -18 3 5 -1 14 -9 21 -12 10 -15 10 -15
-3z"/>
<path d="M2597 5503 c23 -275 90 -667 106 -623 9 23 95 410 103 457 10 63 -3
107 -46 162 -38 48 -153 151 -168 151 -4 0 -2 -66 5 -147z m50 -275 c-2 -13
-4 -5 -4 17 -1 22 1 32 4 23 2 -10 2 -28 0 -40z"/>
<path d="M3291 4209 c-57 -15 -108 -32 -113 -37 -6 -6 20 -40 66 -89 42 -43
82 -88 90 -98 17 -24 14 -30 50 111 26 103 32 145 19 143 -5 -1 -55 -14 -112
-30z"/>
</g>
</svg>
