<svg xmlns="http://www.w3.org/2000/svg" width="348" height="104" viewBox="0 0 348 104" fill="none">
  <rect x="104" y="16" width="232" height="72" rx="10" fill="#111827"/>
  <rect x="104" y="16" width="232" height="72" rx="10" fill="url(#paint0_linear)"/>
  <path d="M52 8c18.5 12.3 32.7 12.3 51 0v44.1c0 25.6-21.4 41.2-46.5 51.7-2.8 1.2-5.2 1.2-8 0C23.4 93.3 2 77.7 2 52.1V8c18.3 12.3 32.5 12.3 50 0Z" fill="#16A34A"/>
  <path d="M52 8c18.5 12.3 32.7 12.3 51 0v44.1c0 25.6-21.4 41.2-46.5 51.7-2.8 1.2-5.2 1.2-8 0C23.4 93.3 2 77.7 2 52.1V8c18.3 12.3 32.5 12.3 50 0Z" fill="url(#paint1_linear)" fill-opacity=".6"/>
  <path d="M52 26c9.7 0 17.5 7.8 17.5 17.5V52h4.5c3 0 5.5 2.5 5.5 5.5V74c0 3-2.5 5.5-5.5 5.5H30c-3 0-5.5-2.5-5.5-5.5V57.5c0-3 2.5-5.5 5.5-5.5h4.5v-8.5C34.5 33.8 42.3 26 52 26Z" fill="#F59E0B"/>
  <path d="M52 36.5c4.1 0 7.5 3.4 7.5 7.5V52h-15v-8c0-4.1 3.4-7.5 7.5-7.5Z" fill="#111827" fill-opacity=".35"/>
  <circle cx="52" cy="63.5" r="5.5" fill="#111827" fill-opacity=".55"/>
  <rect x="49.8" y="66.6" width="4.4" height="8.8" rx="2.2" fill="#111827" fill-opacity=".55"/>
  <text x="128" y="44" font-family="ui-sans-serif, system-ui, -apple-system, Segoe UI, Roboto, Arial" font-size="22" font-weight="800" fill="#FFFFFF" letter-spacing=".5">SITE 100%</text>
  <text x="128" y="74" font-family="ui-sans-serif, system-ui, -apple-system, Segoe UI, Roboto, Arial" font-size="34" font-weight="900" fill="#FFFFFF" letter-spacing="1">SEGURO</text>
  <defs>
    <linearGradient id="paint0_linear" x1="104" y1="16" x2="336" y2="88" gradientUnits="userSpaceOnUse">
      <stop stop-color="#0B1220" stop-opacity="0"/>
      <stop offset="1" stop-color="#0B1220" stop-opacity=".45"/>
    </linearGradient>
    <linearGradient id="paint1_linear" x1="2" y1="8" x2="103" y2="104" gradientUnits="userSpaceOnUse">
      <stop stop-color="#22C55E"/>
      <stop offset="1" stop-color="#166534"/>
    </linearGradient>
  </defs>
</svg>
